<svg width="16" height="16" viewBox="0 0 16 16" fill="none" xmlns="http://www.w3.org/2000/svg">
<path d="M3.33638 2.85111C3.33718 3.05913 3.297 3.26526 3.21814 3.45775C3.13928 3.65023 3.02327 3.8253 2.87675 3.97296C2.73023 4.12061 2.55606 4.23796 2.36418 4.3183C2.17231 4.39864 1.96649 4.44041 1.75848 4.44121C1.55046 4.44041 1.34464 4.39864 1.15277 4.3183C0.960892 4.23796 0.786722 4.12061 0.6402 3.97296C0.493677 3.8253 0.377673 3.65023 0.298809 3.45775C0.219946 3.26526 0.179768 3.05913 0.18057 2.85111C0.17895 2.43107 0.344155 2.02756 0.639884 1.72926C0.935613 1.43096 1.33767 1.26227 1.75771 1.26025C1.96589 1.26095 2.17189 1.30266 2.36395 1.383C2.556 1.46333 2.73035 1.58072 2.87702 1.72846C3.02369 1.87619 3.13982 2.05138 3.21877 2.24401C3.29772 2.43664 3.33718 2.64293 3.33638 2.85111ZM3.34857 5.71359H0.167618V15.8926H3.34857V5.71359ZM8.42667 5.71359H5.26628V15.8926H8.42743V10.5494C8.42743 7.57797 12.2629 7.33568 12.2629 10.5494V15.8926H15.4362V9.44768C15.4362 4.43511 9.76 4.61721 8.42667 7.08578V5.71359Z" fill="black"/>
</svg>
