<svg width="78" height="20" viewBox="0 0 78 20" fill="none" xmlns="http://www.w3.org/2000/svg">
<path d="M52.3125 4.13312C50.9638 4.13312 49.9237 4.61375 48.9587 5.61688V4.36688H46.31V16.6669H49.16V9.53312C49.16 7.9 50.1325 6.86688 51.6081 6.86688C51.8762 6.86688 52.1113 6.9 52.2788 6.93313L54.2569 4.33313C53.4856 4.2 52.8156 4.13312 52.3125 4.13312ZM76.8906 4.36688H73.6044L70.57 8.37875L67.5356 4.36625H64.2494L68.8856 10.5644L64.2494 16.6669H67.6025L70.5531 12.7756L73.5038 16.6669H76.8906L72.2231 10.5744L76.8906 4.36688ZM17.0375 1.6C16.065 2.9 15.83 3.33313 14.8913 3.33313H0.875V20H6.37437C7.615 20 8.82188 19.4 9.59313 18.4C10.5994 17.0669 10.7331 16.6669 11.7056 16.6669H25.7556V0H20.2225C18.9819 0 17.775 0.6 17.0369 1.6H17.0375ZM21.3962 12.3669H15.5281C14.2537 12.3669 13.0806 12.9 12.3094 13.9331C11.3031 15.2669 11.1019 15.6669 10.1631 15.6669H5.20062V7.66687H11.0687C12.3425 7.66687 13.5162 7.06687 14.2875 6.06687C15.2937 4.76687 15.5619 4.36688 16.4669 4.36688H21.3962V12.3669ZM42.4538 8.26688C43.695 7.56687 44.5662 6.33313 44.5662 4.7C44.5662 2.3 42.7225 0 40.04 0H31.9925V16.6669H40.04C42.9569 16.6669 44.9688 14.6 44.9688 12C44.9688 10.4669 44.265 9.13313 42.4538 8.26688ZM34.8425 2.6H39.805C41.0456 2.6 41.7831 3.76687 41.7831 4.8C41.7831 6.06687 40.6769 6.93313 39.6375 6.93313H34.8425V2.6ZM39.6375 14.0669H34.8425V9.53312H39.805C41.0794 9.53312 42.1187 10.6331 42.1187 11.7669C42.1187 13.0331 40.8112 14.0669 39.6375 14.0669Z" fill="black"/>
<path d="M61.3994 13.1333C60.93 13.8671 60.0244 14.3002 59.0181 14.3002C57.4431 14.3002 56.135 13.2333 56.135 11.6002H64.6519C64.7862 11.1002 64.8194 10.8671 64.8194 10.4333C64.8194 6.70018 62.5056 4.1333 59.0187 4.1333C55.5981 4.1333 53.1844 6.56705 53.1844 10.5333C53.1844 14.4002 55.4975 16.9002 59.0856 16.9002C61.6006 16.9002 63.8137 15.6671 64.4506 13.1333H61.3994ZM59.0181 6.7333C60.5944 6.7333 61.8019 7.7333 61.7681 9.2333H56.1681C56.1681 7.76705 57.4431 6.7333 59.0181 6.7333Z" fill="black"/>
</svg>
